# xmcd
#
# Track frame offsets: 
#        150
#        13710
#        28849
#        41605
#        54490
#        69222
#        85940
#        98852
#        115575
#        130878
#
# Disc length: 1926 seconds
#
# Revision: 0
# Processed by: cddbd v1.5.1PL2 Copyright (c) Steve Scherf et al.
# Submitted via: ExactAudioCopy v0.95b3
#
DISCID=7a07840a
DTITLE=David Cline - David Cline
DYEAR=2004
DGENRE=Swing
TTITLE0=Good Ole Country Music and Western Swing
TTITLE1=It's Only Make Believe
TTITLE2=Gonna Try To Get High
TTITLE3=Houston
TTITLE4=Daddy, I Understand
TTITLE5=She's Drawin' The Line
TTITLE6=Just One Beer Away
TTITLE7=He'll Have To Go
TTITLE8=Ridin' Course
TTITLE9=Move It On Over
EXTD=
EXTT0=
EXTT1=
EXTT2=
EXTT3=
EXTT4=
EXTT5=
EXTT6=
EXTT7=
EXTT8=
EXTT9=
PLAYORDER=
